<?xml version="1.0" encoding="iso-8859-1"?>
<!-- Uploaded to: SVG Repo, www.svgrepo.com, Generator: SVG Repo Mixer Tools -->
<!DOCTYPE svg PUBLIC "-//W3C//DTD SVG 1.1//EN" "http://www.w3.org/Graphics/SVG/1.1/DTD/svg11.dtd">
<svg fill="#000000" version="1.1" id="Capa_1" xmlns="http://www.w3.org/2000/svg" xmlns:xlink="http://www.w3.org/1999/xlink" 
	 width="800px" height="800px" viewBox="0 0 395.676 395.677"
	 xml:space="preserve">
<g>
	<g>
		<path d="M395.663,246.716c-0.354-15.504-5.905-29.012-15.643-40.879c-2.844-3.5-6.18-6.646-9.297-9.979
			c4.293-5.742,7.328-12.168,9.846-18.896c6.59-17.608,8.939-35.957,9.404-54.578c0.547-23.323-2.051-46.293-8.611-68.741
			c-3.691-12.66-8.367-24.91-15.561-36.039c-1.695-2.57-3.802-4.867-5.879-7.164c-1.229-1.313-2.488-0.82-2.816,0.875
			c-0.438,1.969-0.818,4.02-0.711,5.986c0.354,7.273,0.875,14.547,1.424,21.85c0.654,8.94,1.176,17.883-0.438,26.77
			c-2.57,14.492-7.984,28-14.548,41.07c-5.469,10.828-11.129,21.52-16.516,32.375c-1.996,3.992-3.445,8.203-5.359,12.797
			c-5.688-4.566-11.647-8.531-16.625-13.48c-9.952-9.845-19.495-20.151-29.065-30.406c-9.979-10.638-22.121-12.496-35.521-8.888
			c-6.78,1.859-11.758,6.591-16.625,11.402c-2.436,2.461-4.84,4.978-7.491,7.164c-2.681,2.215-6.398,1.969-8.914-0.438
			c-1.478-1.423-2.734-3.146-3.91-4.867c-5.715-8.422-15.723-9.023-22.23-1.285c-1.094,1.258-2.133,2.598-2.98,3.992
			c-2.98,4.866-6.809,8.969-11.074,12.688c-9.898,8.75-18.594,18.566-26.25,29.34c-4.047,5.715-8.285,11.32-12.688,16.763
			c-4.457,5.496-8.941,11.02-13.945,16.022c-8.777,8.832-20.016,12.77-32.102,14.792c-2.516,0.41-3.691-0.409-5.031-2.353
			c-4.512-6.534-8.996-13.098-13.891-19.331c-10.883-13.81-21-28.138-29.477-43.56c-7.109-12.987-13.07-26.44-15.258-41.18
			c-2.242-14.848-3.992-29.75-6.016-44.652c-0.328-2.625-1.012-5.223-1.531-7.819c-0.273-0.027-0.574-0.056-0.875-0.082
			c-0.738,0.711-1.668,1.312-2.188,2.16c-0.875,1.477-1.695,3.062-2.242,4.676C1.638,62.856,0.627,73.301,0.326,83.747
			c-0.328,11.922-0.574,23.871,0.109,35.766c0.711,12.88,2.078,25.785,3.965,38.556c2.707,18.293,7.984,36.012,14.52,53.348
			c4.238,11.269,8.258,22.644,14.875,32.84c10.035,15.423,22.859,28.109,37.762,38.746c1.176,0.82,1.504,1.504,1.23,2.979
			c-1.723,9.789-2.215,19.635-1.012,29.561c2.242,18.539,10.965,32.4,28.52,40.031c13.836,5.986,28.438,8.61,43.203,10.418
			c15.367,1.887,30.57,4.211,45.691,7.602c24.854,5.605,49.792,10.855,75.358,12.224c7.521,0.409,15.013,0.164,22.341-1.806
			c14.438-3.883,24.362-13.262,31.608-25.922c2.297-3.991,4.375-8.176,7.056-11.922c12.194-17.062,25.758-33.03,40.741-47.771
			c5.742-5.66,11.703-11.185,17.062-17.228C391.999,271.406,395.937,259.731,395.663,246.716z M380.898,273.484
			c-2.076,3.172-4.758,5.961-7.438,8.724c-10.008,10.28-20.508,20.181-30.133,30.815c-8.096,8.914-15.422,18.564-22.694,28.163
			c-3.228,4.293-5.47,9.298-8.203,14c-5.906,10.174-13.754,18.186-25.293,21.85c-6.836,2.188-13.836,2.68-20.974,2.242
			c-26.961-1.726-53.186-7.687-79.57-12.963c-13.563-2.705-27.234-4.759-40.934-6.779c-13.918-2.104-27.918-3.664-41.043-9.188
			c-14.711-6.206-23.461-17.227-25.813-33.223c-1.477-10.199-0.957-20.344,0.656-30.406c0.711-4.457-0.984-7.055-4.156-9.598
			c-5.25-4.184-10.391-8.504-15.449-12.934c-14.355-12.523-24.309-28-30.816-45.885c-5.852-16.021-12.141-31.882-15.531-48.644
			c-3.719-18.156-5.797-36.531-6.344-55.043c-0.273-10.473,0-20.945,0-31.418c0-0.875,0.109-1.723,0.219-2.598
			c0-0.191,0.191-0.328,0.109-0.191c1.805,9.188,3.445,18.621,5.496,27.973c3.172,14.41,9.598,27.48,17.09,40.086
			c8.777,14.849,18.922,28.685,29.449,42.302c6.207,8.039,11.84,16.567,17.199,25.211c3.965,6.344,6.453,13.371,6.945,20.973
			c0.273,5.223-0.738,10.227-2.023,15.176c-0.273,1.066-0.738,2.215-0.52,3.199c0.246,1.039,0.984,2.352,1.887,2.734
			c0.602,0.271,2.188-0.521,2.68-1.313c2.516-3.828,3.336-8.285,3.855-12.715c1.23-10.419-1.586-20.044-5.879-29.341
			c-0.438-0.849-0.82-1.694-1.285-2.707c3.199-0.737,6.262-1.422,9.27-2.133c14.328-3.336,25.32-11.758,34.344-22.913
			c6.344-7.849,12.551-15.859,18.43-24.09c7.574-10.582,16.242-20.125,25.867-28.82c5.387-4.867,10.172-10.254,14.109-16.379
			c0.547-0.849,1.148-1.668,1.805-2.435c2.68-3.062,6.07-3.336,9.105-0.573c1.34,1.258,2.488,2.815,3.527,4.375
			c5.469,8.202,14.629,9.733,22.176,3.418c3.146-2.652,5.879-5.742,8.725-8.75c8.642-9.16,19.142-10.992,30.789-7.384
			c2.625,0.793,5.25,2.543,7.219,4.513c8.367,8.504,16.353,17.362,24.664,25.895c6.728,6.892,13.943,13.262,21.931,18.648
			c0.491,0.328,0.983,0.629,1.479,0.957c6.288,3.801,9.732,2.598,12.74-4.129c4.048-9.023,8.203-17.992,12.359-26.935
			c0.301-0.656,0.711-1.229,1.422-1.805c-0.22,2.324-0.521,4.621-0.547,6.945c-0.164,6.836-0.656,13.727-0.22,20.534
			c0.603,8.724,3.746,16.734,8.504,24.063c0.767,1.176,1.806,2.324,2.979,3.062c0.738,0.438,2.188,0.438,2.928,0
			c0.685-0.354,1.176-1.668,1.119-2.487c-0.107-1.177-0.602-2.435-1.229-3.418c-6.398-9.871-9.105-20.617-8.312-32.349
			c0.793-11.758,1.56-23.543,4.896-34.918c1.913-6.698,4.895-13.098,7.055-19.742c4.867-15.147,6.893-30.68,5.195-46.62
			c-0.273-2.789-0.438-5.605-0.656-8.424c0-0.271,0-0.572,0.383-1.012c0.303,0.574,0.63,1.148,0.902,1.725
			c8.094,16.434,12.659,33.879,15.229,51.952c2.814,19.552,2.896,39.156,1.258,58.789c-1.366,15.832-5.633,30.789-13.1,44.816
			c-0.875,1.641-1.939,3.172-3.033,4.703c-2.928,4.102-2.733,7.601,1.038,10.91c8.806,7.684,15.479,16.813,19.03,27.973
			C390.523,245.103,390.03,259.867,380.898,273.484z"/>
		<path d="M158.593,268.699c6.891,0.521,13.863-0.055,20.781-0.604c14.546-1.229,28.602-4.758,41.727-11.4
			c12.552-6.371,23.188-14.983,30.022-27.562c2.461-4.565,4.047-9.649,6.043-14.571c1.013,0.629,2.16,1.477,3.418,2.158
			c1.259,0.737,2.517,1.424,3.884,1.94c13.81,5.387,28,5.469,42.164,1.996c12.604-3.117,18.812-11.84,18.866-24.883
			c0.027-7.138-2.68-13.398-6.289-19.332c-8.694-14.191-20.562-25.267-34.069-34.672c-6.263-4.32-12.853-8.121-20.289-10.035
			c-9.844-2.543-18.047,1.586-21.931,10.992c-2.405,5.77-3.008,11.84-3.336,17.991c-0.055,1.259-0.164,2.461-0.272,4.238
			c-0.957-1.258-1.529-1.996-2.051-2.762c-4.211-5.633-8.888-10.828-14.738-14.849c-8.641-5.987-17.771-7.19-27.479-2.926
			c-5.141,2.297-9.625,5.551-13.699,9.406c-10.555,9.871-21.109,19.742-31.609,29.668c-7.82,7.41-14.41,15.75-19.223,25.457
			c-6.863,13.809-7.52,27.535,0.273,41.234C136.937,260.962,146.042,267.798,158.593,268.699z M247.788,149.838
			c0.328-1.395,0.793-2.789,1.367-4.102c2.951-6.836,7.93-9.051,15.094-7.027c6.125,1.723,11.539,4.867,16.707,8.478
			c11.785,8.258,22.422,17.745,30.707,29.641c4.318,6.207,7.22,12.961,6.943,20.781c-0.244,7.382-3.662,12.413-10.443,15.229
			c-6.508,2.651-13.344,2.953-20.453,3.146c-6.944-0.138-14.055-0.711-20.698-3.772c-1.888-0.875-3.746-1.939-5.439-3.116
			c-3.117-2.188-5.087-5.005-6.233-8.914c-2.023-6.972-5.087-13.615-7.656-20.425c-0.547-1.449-1.258-2.979-1.34-4.483
			C245.765,166.735,245.819,158.233,247.788,149.838z M133.601,219.729c2.816-8.808,7.219-16.789,13.699-23.324
			c12.824-12.879,25.895-25.539,39.129-38.035c3.254-3.063,7.329-5.387,11.348-7.465c6.48-3.336,12.934-2.652,19.168,1.147
			c5.633,3.418,10.146,8.066,14.025,13.345c6.975,9.461,12.225,19.852,16.323,30.87c4.648,12.357,2.681,23.568-5.03,34.099
			c-8.586,11.701-20.099,19.305-33.47,24.336c-13.973,5.223-28.546,7.055-44.406,7.383c-5.332,0.301-11.457-0.711-17.008-4.074
			C135.023,250.544,129.062,233.919,133.601,219.729z"/>
		<path d="M369.769,213.385c-4.318-3.72-9.543-5.112-15.064-5.03c-2.845,0.025-5.688,0.736-8.479,1.448
			c-0.711,0.189-1.668,1.694-1.529,2.405c0.219,0.983,1.176,2.104,2.133,2.543c1.013,0.438,2.379,0.19,3.582,0.19
			c2.078,0.026,4.129,0,6.779,0c-1.012,3.991-1.939,7.685-2.926,11.513c-3.392-1.888-6.345-3.69-9.461-5.194
			c-6.345-3.009-13.099-3.938-20.069-2.953c-5.853,0.819-7.438,3.909-4.677,9.134c1.449,2.707,3.09,5.414,4.979,7.849
			c4.758,6.098,7.138,13.151,8.56,20.59c0.164,0.93-0.22,2.405-0.901,3.008c-6.099,5.307-12.005,10.854-18.513,15.643
			c-14.547,10.746-30.896,18.293-47.578,25.047c-15.693,6.345-31.828,10.938-48.891,11.483c-1.695,0.081-3.966,0.794-5.005-0.026
			c-1.176-0.901-1.284-3.229-1.724-4.948c-2.681-10.444-7.466-19.879-14.493-28.025c-1.531-1.807-3.664-3.256-5.797-4.375
			c-1.969-1.039-3.719-0.328-4.703,1.668c-0.848,1.668-1.559,3.473-1.887,5.275c-1.641,8.996-5.441,17.008-10.855,24.311
			c-0.93,1.258-1.641,1.447-3.008,0.793c-7.328-3.557-13.645-8.422-18.648-14.85c-2.297-2.896-4.211-6.068-6.289-9.16
			c0.164-0.162,0.328-0.326,0.492-0.49c1.586,0.409,3.172,0.766,4.73,1.258c2.27,0.767,4.402,1.857,6.727,2.324
			c1.23,0.271,3.473-0.109,3.801-0.85c0.492-1.095,0.164-3.228-0.711-4.073c-1.586-1.642-3.637-3.062-5.77-3.909
			c-5.059-1.996-10.473-2.078-15.805-1.996c-14.875,0.271-26.523,6.617-34.945,18.867c-1.559,2.24-2.598,4.783-1.777,7.547
			c0.328,0.982,1.367,2.188,2.297,2.461c0.875,0.246,2.297-0.354,3.008-1.065c1.121-1.095,1.969-2.488,2.734-3.854
			c5.25-9.324,13.672-13.945,23.68-16.38c1.695-0.409,2.461,0,3.309,1.587c11.238,20.973,28.902,32.84,52.363,35.107
			c20.863,2.022,41.562-0.164,61.852-5.521c16.188-4.268,31.443-11.074,46.375-18.483c17.72-8.777,33.771-19.853,46.539-35.164
			c9.133-10.938,15.75-23.104,18.349-37.271c0.301-1.504,0.491-3.01,0.737-4.785c1.914,1.312,3.5,2.435,5.113,3.525
			c1.447,0.984,2.926,0.875,4.154-0.301c1.285-1.203,0.604-2.599-0.138-3.746C371.683,215.38,370.78,214.26,369.769,213.385z
			 M178.444,308.813c6.727-7.818,10.172-16.871,12.113-27.017c8.013,8.668,12.168,18.676,14.85,29.504
			C199.334,312.178,184.515,310.837,178.444,308.813z M339.773,252.896c-1.586-11.021-7.107-19.552-13.37-27.755
			c6.099-1.913,18.349,2.052,25.073,8.066C348.851,240.234,344.749,246.415,339.773,252.896z"/>
		<path d="M325.827,308.978c-6.508,4.293-12.879,8.776-19.471,12.905c-24.062,15.095-50.312,23.625-78.422,26.988
			c-2.133,0.246-4.267,0.901-6.396,1.396c0,0.327-0.057,0.686-0.108,1.013c0.849,0.603,1.586,1.423,2.518,1.75
			c2.133,0.737,4.267,1.396,6.479,1.75c12.276,2.104,24.582,1.913,36.887,0.384c9.6-1.203,18.539-4.268,26.522-9.927
			c8.695-6.182,16.681-13.182,23.707-21.139c3.664-4.155,6.863-8.75,10.199-13.18c0.629-0.82,0.849-1.94,1.258-2.926
			c-0.219-0.137-0.383-0.273-0.573-0.41C327.577,308.048,326.648,308.432,325.827,308.978z"/>
		<path d="M284.538,236.242c1.531-1.229,3.062-2.379,4.595-3.607c1.094-0.875,2.241-2.104,1.422-3.5
			c-0.656-1.065-2.021-2.271-3.172-2.405c-7.656-0.82-12.906,1.064-14.875,8.723c-1.478,5.824-4.074,7.656-10.062,4.375
			c-5.414-2.952-10.938-1.805-15.971,1.531c-2.271,1.53-3.883,3.689-3.771,6.698c0.056,1.97,1.504,3.146,3.474,2.815
			c0.711-0.138,1.422-0.328,2.104-0.574c4.646-1.832,8.914-1.12,12.74,2.052c3.5,2.927,6.893,5.987,10.393,8.858
			c2.681,2.215,5.771,3.474,9.188,1.668c3.336-1.724,3.363-4.922,3.311-9.353c-0.438-2.733-1.039-6.754-1.725-10.721
			C281.749,240.152,282.405,237.966,284.538,236.242z"/>
		<path d="M233.898,216.036c4.432-0.983,6.617-5.195,5.031-10.474c-1.914-6.371-5.578-11.676-10.72-15.913
			c-0.438-0.355-0.93-0.656-1.422-0.957c-2.953-1.613-4.979-0.875-5.742,2.323c-0.52,2.105-0.629,4.267-0.93,6.398
			c0.164,5.66,1.203,10.963,4.978,15.367C227.444,215.488,230.234,216.829,233.898,216.036z"/>
		<path d="M270.209,202.173c2.707,2.104,4.923,1.341,5.853-1.969c0.328-1.285,0.438-2.651,0.656-3.992
			c-0.492-5.604-2.625-10.363-6.892-13.973c-2.926-2.488-6.289-1.148-6.836,2.651c-0.246,1.832-0.272,3.746,0.055,5.552
			C263.948,195.201,266.382,199.192,270.209,202.173z"/>
	</g>
</g>
</svg>